<svg width="60" height="60" viewBox="0 0 60 60" fill="none" xmlns="http://www.w3.org/2000/svg">
<path d="M19.6875 4.6875H38.4375V23.4375H19.6875V4.6875Z" fill="#E6B50B"/>
<path d="M47.8125 18.75L53.4375 28.125H30.9375L38.4375 23.4375V9.375H53.4375L47.8125 18.75Z" fill="#CEA204"/>
<path d="M38.4375 23.4375L30.9375 28.125V23.4375H38.4375Z" fill="#EAB80A"/>
<path d="M27.1875 53.4375H24.375L22.5 49.6875H19.6875V4.6875C19.6875 4.19022 19.49 3.71331 19.1383 3.36167C18.7867 3.01004 18.3098 2.8125 17.8125 2.8125C17.3152 2.8125 16.8383 3.01004 16.4867 3.36167C16.135 3.71331 15.9375 4.19022 15.9375 4.6875V49.6875H13.125L11.25 53.4375H8.4375L6.5625 57.1875H29.0625L27.1875 53.4375Z" fill="#36474F"/>
</svg>
