<svg width="54" height="40" viewBox="0 0 54 40" fill="none" xmlns="http://www.w3.org/2000/svg">
<path d="M35.6513 6.6667H17.6823C17.5368 6.6667 17.3931 6.63739 17.2607 6.58076C17.1284 6.52413 17.0106 6.4415 16.9152 6.33847C16.8199 6.23543 16.7493 6.11439 16.7082 5.98354C16.667 5.85269 16.6564 5.71508 16.6769 5.58003L17.402 0.818099C17.4365 0.591069 17.5571 0.383328 17.7418 0.233038C17.9265 0.0827485 18.1629 2.20055e-06 18.4074 0H34.9262C35.1707 2.20055e-06 35.4071 0.0827485 35.5918 0.233038C35.7765 0.383328 35.8971 0.591069 35.9316 0.818099L36.6567 5.58003C36.6772 5.71508 36.6665 5.85269 36.6254 5.98354C36.5843 6.11439 36.5137 6.23543 36.4184 6.33847C36.323 6.4415 36.2052 6.52413 36.0729 6.58076C35.9405 6.63739 35.7968 6.6667 35.6513 6.6667Z" fill="#FFA000"/>
<path d="M3.19897 17.8772L4.54207 16.5341L8.34101 20.333L6.99791 21.6761L3.19897 17.8772Z" fill="#37474F"/>
<path d="M44.9814 20.3362L48.7804 16.5372L50.1235 17.8803L46.3245 21.6793L44.9814 20.3362Z" fill="#37474F"/>
<path d="M3.87354 26.7043V38.1009C3.87354 38.6046 4.07365 39.0878 4.42986 39.444C4.78607 39.8002 5.2692 40.0003 5.77296 40.0003H9.5718C10.0756 40.0003 10.5587 39.8002 10.9149 39.444C11.2711 39.0878 11.4712 38.6046 11.4712 38.1009V26.7043H3.87354Z" fill="#37474F"/>
<path d="M41.8621 26.7043V38.1009C41.8621 38.6046 42.0622 39.0878 42.4184 39.444C42.7746 39.8002 43.2577 40.0003 43.7615 40.0003H47.5603C48.0641 40.0003 48.5472 39.8002 48.9034 39.444C49.2596 39.0878 49.4597 38.6046 49.4597 38.1009V26.7043H41.8621Z" fill="#37474F"/>
<path d="M46.1112 18.6807C45.0669 14.4943 43.0175 10.603 40.1282 7.32005C38.3334 5.55566 26.6667 5.55566 26.6667 5.55566C26.6667 5.55566 15 5.55566 13.2052 7.32005C10.3159 10.603 8.26654 14.4943 7.22216 18.6807C5.31571 19.9935 3.94112 21.9039 3.33325 24.0854V26.732C4.02141 29.3248 4.32356 31.9988 4.23062 34.6736L5.12798 35.5558H48.2054L49.1028 34.6736C49.0098 31.9988 49.312 29.3248 50.0001 26.732V24.0854C49.3923 21.9039 48.0177 19.9935 46.1112 18.6807Z" fill="#FFC107"/>
<path d="M43.3335 18.889C42.3758 15.275 40.6498 11.9077 38.2722 9.01488C37.3233 8.34543 32.0099 7.77783 26.6667 7.77783C21.3236 7.77783 16.0083 8.34543 15.1432 8.9371C12.7092 11.8341 10.9524 15.2334 10 18.889H43.3335Z" fill="#ECEFF1"/>
<path d="M15.5557 28.889H7.55617C7.31373 28.88 7.08403 28.7511 6.91742 28.5305C6.75081 28.3099 6.66088 28.0157 6.66734 27.7122V25.6166C6.66245 25.4474 6.68798 25.279 6.74203 25.1238C6.79608 24.9686 6.87729 24.8306 6.97965 24.7199C7.08201 24.6092 7.20293 24.5287 7.33347 24.4842C7.46402 24.4398 7.60087 24.4326 7.73394 24.4632L15.5557 26.5354V28.889Z" fill="#ECEFF1"/>
<path d="M37.7781 28.889H45.7776C46.02 28.88 46.2497 28.7511 46.4163 28.5305C46.5829 28.3099 46.6729 28.0157 46.6664 27.7122V25.6166C46.6713 25.4474 46.6458 25.279 46.5917 25.1238C46.5377 24.9686 46.4565 24.8306 46.3541 24.7199C46.2517 24.6092 46.1308 24.5287 46.0003 24.4842C45.8697 24.4398 45.7329 24.4326 45.5998 24.4632L37.7781 26.5354V28.889Z" fill="#ECEFF1"/>
<path d="M48.7038 18.8889H52.4076C52.9189 18.8889 53.3335 18.5158 53.3335 18.0556V16.3889C53.3335 15.9287 52.9189 15.5556 52.4076 15.5556H48.7038C48.1925 15.5556 47.7779 15.9287 47.7779 16.3889V18.0556C47.7779 18.5158 48.1925 18.8889 48.7038 18.8889Z" fill="#FFA000"/>
<path d="M4.62965 15.5557H0.92593C0.414553 15.5557 0 15.9288 0 16.389V18.0557C0 18.5159 0.414553 18.889 0.92593 18.889H4.62965C5.14103 18.889 5.55558 18.5159 5.55558 18.0557V16.389C5.55558 15.9288 5.14103 15.5557 4.62965 15.5557Z" fill="#FFA000"/>
<path d="M34.5535 33.3335H18.7801C18.6379 33.3334 18.4974 33.3041 18.3679 33.2474C18.2384 33.1907 18.1227 33.1079 18.0287 33.0046C17.9347 32.9012 17.8643 32.7797 17.8224 32.648C17.7805 32.5163 17.7679 32.3775 17.7856 32.2407L18.5374 26.4073C18.5677 26.1722 18.6855 25.956 18.8686 25.7991C19.0518 25.6423 19.2876 25.5557 19.5319 25.5557H33.8016C34.0459 25.5557 34.2818 25.6423 34.4649 25.7991C34.648 25.956 34.7658 26.1722 34.7961 26.4073L35.548 32.2407C35.5656 32.3775 35.553 32.5163 35.5111 32.648C35.4692 32.7797 35.3989 32.9012 35.3048 33.0046C35.2108 33.1079 35.0952 33.1907 34.9656 33.2474C34.8361 33.3041 34.6956 33.3334 34.5535 33.3335Z" fill="#37474F"/>
</svg>
