<svg width="157" height="196" viewBox="0 0 157 196" fill="none" xmlns="http://www.w3.org/2000/svg">
<path d="M2.58394 1.28947C2.58394 2.00158 2.00551 2.57895 1.29197 2.57895C0.578436 2.57895 0 2.00158 0 1.28947C0 0.577367 0.578436 0 1.29197 0C2.00551 0 2.58394 0.577367 2.58394 1.28947Z" fill="white"/>
<path d="M2.58394 59.3158C2.58394 60.0279 2.00551 60.6053 1.29197 60.6053C0.578436 60.6053 0 60.0279 0 59.3158C0 58.6037 0.578436 58.0263 1.29197 58.0263C2.00551 58.0263 2.58394 58.6037 2.58394 59.3158Z" fill="white"/>
<path d="M2.58394 117.342C2.58394 118.054 2.00551 118.632 1.29197 118.632C0.578436 118.632 0 118.054 0 117.342C0 116.63 0.578436 116.053 1.29197 116.053C2.00551 116.053 2.58394 116.63 2.58394 117.342Z" fill="white"/>
<path d="M2.58394 175.368C2.58394 176.081 2.00551 176.658 1.29197 176.658C0.578436 176.658 0 176.081 0 175.368C0 174.656 0.578436 174.079 1.29197 174.079C2.00551 174.079 2.58394 174.656 2.58394 175.368Z" fill="white"/>
<path d="M2.58394 20.6316C2.58394 21.3437 2.00551 21.9211 1.29197 21.9211C0.578436 21.9211 0 21.3437 0 20.6316C0 19.9195 0.578436 19.3421 1.29197 19.3421C2.00551 19.3421 2.58394 19.9195 2.58394 20.6316Z" fill="white"/>
<path d="M2.58394 78.6579C2.58394 79.37 2.00551 79.9474 1.29197 79.9474C0.578436 79.9474 0 79.37 0 78.6579C0 77.9458 0.578436 77.3684 1.29197 77.3684C2.00551 77.3684 2.58394 77.9458 2.58394 78.6579Z" fill="white"/>
<path d="M2.58394 136.684C2.58394 137.396 2.00551 137.974 1.29197 137.974C0.578436 137.974 0 137.396 0 136.684C0 135.972 0.578436 135.395 1.29197 135.395C2.00551 135.395 2.58394 135.972 2.58394 136.684Z" fill="white"/>
<path d="M2.58394 194.711C2.58394 195.423 2.00551 196 1.29197 196C0.578436 196 0 195.423 0 194.711C0 193.998 0.578436 193.421 1.29197 193.421C2.00551 193.421 2.58394 193.998 2.58394 194.711Z" fill="white"/>
<path d="M2.58394 39.9737C2.58394 40.6858 2.00551 41.2632 1.29197 41.2632C0.578436 41.2632 0 40.6858 0 39.9737C0 39.2616 0.578436 38.6842 1.29197 38.6842C2.00551 38.6842 2.58394 39.2616 2.58394 39.9737Z" fill="white"/>
<path d="M2.58394 98C2.58394 98.7121 2.00551 99.2895 1.29197 99.2895C0.578436 99.2895 0 98.7121 0 98C0 97.2879 0.578436 96.7105 1.29197 96.7105C2.00551 96.7105 2.58394 97.2879 2.58394 98Z" fill="white"/>
<path d="M2.58394 156.026C2.58394 156.738 2.00551 157.316 1.29197 157.316C0.578436 157.316 0 156.738 0 156.026C0 155.314 0.578436 154.737 1.29197 154.737C2.00551 154.737 2.58394 155.314 2.58394 156.026Z" fill="white"/>
<path d="M21.9635 1.28947C21.9635 2.00158 21.3851 2.57895 20.6715 2.57895C19.958 2.57895 19.3796 2.00158 19.3796 1.28947C19.3796 0.577367 19.958 0 20.6715 0C21.3851 0 21.9635 0.577367 21.9635 1.28947Z" fill="white"/>
<path d="M21.9635 59.3158C21.9635 60.0279 21.3851 60.6053 20.6715 60.6053C19.958 60.6053 19.3796 60.0279 19.3796 59.3158C19.3796 58.6037 19.958 58.0263 20.6715 58.0263C21.3851 58.0263 21.9635 58.6037 21.9635 59.3158Z" fill="white"/>
<path d="M21.9635 117.342C21.9635 118.054 21.3851 118.632 20.6715 118.632C19.958 118.632 19.3796 118.054 19.3796 117.342C19.3796 116.63 19.958 116.053 20.6715 116.053C21.3851 116.053 21.9635 116.63 21.9635 117.342Z" fill="white"/>
<path d="M21.9635 175.368C21.9635 176.081 21.3851 176.658 20.6715 176.658C19.958 176.658 19.3796 176.081 19.3796 175.368C19.3796 174.656 19.958 174.079 20.6715 174.079C21.3851 174.079 21.9635 174.656 21.9635 175.368Z" fill="white"/>
<path d="M21.9635 20.6316C21.9635 21.3437 21.3851 21.9211 20.6715 21.9211C19.958 21.9211 19.3796 21.3437 19.3796 20.6316C19.3796 19.9195 19.958 19.3421 20.6715 19.3421C21.3851 19.3421 21.9635 19.9195 21.9635 20.6316Z" fill="white"/>
<path d="M21.9635 78.6579C21.9635 79.37 21.3851 79.9474 20.6715 79.9474C19.958 79.9474 19.3796 79.37 19.3796 78.6579C19.3796 77.9458 19.958 77.3684 20.6715 77.3684C21.3851 77.3684 21.9635 77.9458 21.9635 78.6579Z" fill="white"/>
<path d="M21.9635 136.684C21.9635 137.396 21.3851 137.974 20.6715 137.974C19.958 137.974 19.3796 137.396 19.3796 136.684C19.3796 135.972 19.958 135.395 20.6715 135.395C21.3851 135.395 21.9635 135.972 21.9635 136.684Z" fill="white"/>
<path d="M21.9635 194.711C21.9635 195.423 21.3851 196 20.6715 196C19.958 196 19.3796 195.423 19.3796 194.711C19.3796 193.998 19.958 193.421 20.6715 193.421C21.3851 193.421 21.9635 193.998 21.9635 194.711Z" fill="white"/>
<path d="M21.9635 39.9737C21.9635 40.6858 21.3851 41.2632 20.6715 41.2632C19.958 41.2632 19.3796 40.6858 19.3796 39.9737C19.3796 39.2616 19.958 38.6842 20.6715 38.6842C21.3851 38.6842 21.9635 39.2616 21.9635 39.9737Z" fill="white"/>
<path d="M21.9635 98C21.9635 98.7121 21.3851 99.2895 20.6715 99.2895C19.958 99.2895 19.3796 98.7121 19.3796 98C19.3796 97.2879 19.958 96.7105 20.6715 96.7105C21.3851 96.7105 21.9635 97.2879 21.9635 98Z" fill="white"/>
<path d="M21.9635 156.026C21.9635 156.738 21.3851 157.316 20.6715 157.316C19.958 157.316 19.3796 156.738 19.3796 156.026C19.3796 155.314 19.958 154.737 20.6715 154.737C21.3851 154.737 21.9635 155.314 21.9635 156.026Z" fill="white"/>
<path d="M40.0511 2.57895C40.7646 2.57895 41.3431 2.00158 41.3431 1.28947C41.3431 0.577367 40.7646 0 40.0511 0C39.3376 0 38.7591 0.577367 38.7591 1.28947C38.7591 2.00158 39.3376 2.57895 40.0511 2.57895Z" fill="white"/>
<path d="M40.0511 60.6053C40.7646 60.6053 41.3431 60.0279 41.3431 59.3158C41.3431 58.6037 40.7646 58.0263 40.0511 58.0263C39.3376 58.0263 38.7591 58.6037 38.7591 59.3158C38.7591 60.0279 39.3376 60.6053 40.0511 60.6053Z" fill="white"/>
<path d="M40.0511 118.632C40.7646 118.632 41.3431 118.054 41.3431 117.342C41.3431 116.63 40.7646 116.053 40.0511 116.053C39.3376 116.053 38.7591 116.63 38.7591 117.342C38.7591 118.054 39.3376 118.632 40.0511 118.632Z" fill="white"/>
<path d="M40.0511 176.658C40.7646 176.658 41.3431 176.081 41.3431 175.368C41.3431 174.656 40.7646 174.079 40.0511 174.079C39.3376 174.079 38.7591 174.656 38.7591 175.368C38.7591 176.081 39.3376 176.658 40.0511 176.658Z" fill="white"/>
<path d="M40.0511 21.9211C40.7646 21.9211 41.3431 21.3437 41.3431 20.6316C41.3431 19.9195 40.7646 19.3421 40.0511 19.3421C39.3376 19.3421 38.7591 19.9195 38.7591 20.6316C38.7591 21.3437 39.3376 21.9211 40.0511 21.9211Z" fill="white"/>
<path d="M40.0511 79.9474C40.7646 79.9474 41.3431 79.37 41.3431 78.6579C41.3431 77.9458 40.7646 77.3684 40.0511 77.3684C39.3376 77.3684 38.7591 77.9458 38.7591 78.6579C38.7591 79.37 39.3376 79.9474 40.0511 79.9474Z" fill="white"/>
<path d="M40.0511 137.974C40.7646 137.974 41.3431 137.396 41.3431 136.684C41.3431 135.972 40.7646 135.395 40.0511 135.395C39.3376 135.395 38.7591 135.972 38.7591 136.684C38.7591 137.396 39.3376 137.974 40.0511 137.974Z" fill="white"/>
<path d="M40.0511 196C40.7646 196 41.3431 195.423 41.3431 194.711C41.3431 193.998 40.7646 193.421 40.0511 193.421C39.3376 193.421 38.7591 193.998 38.7591 194.711C38.7591 195.423 39.3376 196 40.0511 196Z" fill="white"/>
<path d="M40.0511 41.2632C40.7646 41.2632 41.3431 40.6858 41.3431 39.9737C41.3431 39.2616 40.7646 38.6842 40.0511 38.6842C39.3376 38.6842 38.7591 39.2616 38.7591 39.9737C38.7591 40.6858 39.3376 41.2632 40.0511 41.2632Z" fill="white"/>
<path d="M40.0511 99.2895C40.7646 99.2895 41.3431 98.7121 41.3431 98C41.3431 97.2879 40.7646 96.7105 40.0511 96.7105C39.3376 96.7105 38.7591 97.2879 38.7591 98C38.7591 98.7121 39.3376 99.2895 40.0511 99.2895Z" fill="white"/>
<path d="M40.0511 157.316C40.7646 157.316 41.3431 156.738 41.3431 156.026C41.3431 155.314 40.7646 154.737 40.0511 154.737C39.3376 154.737 38.7591 155.314 38.7591 156.026C38.7591 156.738 39.3376 157.316 40.0511 157.316Z" fill="white"/>
<path d="M60.7226 1.28947C60.7226 2.00158 60.1442 2.57895 59.4307 2.57895C58.7171 2.57895 58.1387 2.00158 58.1387 1.28947C58.1387 0.577367 58.7171 0 59.4307 0C60.1442 0 60.7226 0.577367 60.7226 1.28947Z" fill="white"/>
<path d="M60.7226 59.3158C60.7226 60.0279 60.1442 60.6053 59.4307 60.6053C58.7171 60.6053 58.1387 60.0279 58.1387 59.3158C58.1387 58.6037 58.7171 58.0263 59.4307 58.0263C60.1442 58.0263 60.7226 58.6037 60.7226 59.3158Z" fill="white"/>
<path d="M60.7226 117.342C60.7226 118.054 60.1442 118.632 59.4307 118.632C58.7171 118.632 58.1387 118.054 58.1387 117.342C58.1387 116.63 58.7171 116.053 59.4307 116.053C60.1442 116.053 60.7226 116.63 60.7226 117.342Z" fill="white"/>
<path d="M60.7226 175.368C60.7226 176.081 60.1442 176.658 59.4307 176.658C58.7171 176.658 58.1387 176.081 58.1387 175.368C58.1387 174.656 58.7171 174.079 59.4307 174.079C60.1442 174.079 60.7226 174.656 60.7226 175.368Z" fill="white"/>
<path d="M60.7226 20.6316C60.7226 21.3437 60.1442 21.9211 59.4307 21.9211C58.7171 21.9211 58.1387 21.3437 58.1387 20.6316C58.1387 19.9195 58.7171 19.3421 59.4307 19.3421C60.1442 19.3421 60.7226 19.9195 60.7226 20.6316Z" fill="white"/>
<path d="M60.7226 78.6579C60.7226 79.37 60.1442 79.9474 59.4307 79.9474C58.7171 79.9474 58.1387 79.37 58.1387 78.6579C58.1387 77.9458 58.7171 77.3684 59.4307 77.3684C60.1442 77.3684 60.7226 77.9458 60.7226 78.6579Z" fill="white"/>
<path d="M60.7226 136.684C60.7226 137.396 60.1442 137.974 59.4307 137.974C58.7171 137.974 58.1387 137.396 58.1387 136.684C58.1387 135.972 58.7171 135.395 59.4307 135.395C60.1442 135.395 60.7226 135.972 60.7226 136.684Z" fill="white"/>
<path d="M60.7226 194.711C60.7226 195.423 60.1442 196 59.4307 196C58.7171 196 58.1387 195.423 58.1387 194.711C58.1387 193.998 58.7171 193.421 59.4307 193.421C60.1442 193.421 60.7226 193.998 60.7226 194.711Z" fill="white"/>
<path d="M60.7226 39.9737C60.7226 40.6858 60.1442 41.2632 59.4307 41.2632C58.7171 41.2632 58.1387 40.6858 58.1387 39.9737C58.1387 39.2616 58.7171 38.6842 59.4307 38.6842C60.1442 38.6842 60.7226 39.2616 60.7226 39.9737Z" fill="white"/>
<path d="M60.7226 98C60.7226 98.7121 60.1442 99.2895 59.4307 99.2895C58.7171 99.2895 58.1387 98.7121 58.1387 98C58.1387 97.2879 58.7171 96.7105 59.4307 96.7105C60.1442 96.7105 60.7226 97.2879 60.7226 98Z" fill="white"/>
<path d="M60.7226 156.026C60.7226 156.738 60.1442 157.316 59.4307 157.316C58.7171 157.316 58.1387 156.738 58.1387 156.026C58.1387 155.314 58.7171 154.737 59.4307 154.737C60.1442 154.737 60.7226 155.314 60.7226 156.026Z" fill="white"/>
<path d="M78.8102 2.57895C79.5238 2.57895 80.1022 2.00158 80.1022 1.28947C80.1022 0.577367 79.5238 0 78.8102 0C78.0967 0 77.5182 0.577367 77.5182 1.28947C77.5182 2.00158 78.0967 2.57895 78.8102 2.57895Z" fill="white"/>
<path d="M78.8102 60.6053C79.5238 60.6053 80.1022 60.0279 80.1022 59.3158C80.1022 58.6037 79.5238 58.0263 78.8102 58.0263C78.0967 58.0263 77.5182 58.6037 77.5182 59.3158C77.5182 60.0279 78.0967 60.6053 78.8102 60.6053Z" fill="white"/>
<path d="M78.8102 118.632C79.5238 118.632 80.1022 118.054 80.1022 117.342C80.1022 116.63 79.5238 116.053 78.8102 116.053C78.0967 116.053 77.5182 116.63 77.5182 117.342C77.5182 118.054 78.0967 118.632 78.8102 118.632Z" fill="white"/>
<path d="M78.8102 176.658C79.5238 176.658 80.1022 176.081 80.1022 175.368C80.1022 174.656 79.5238 174.079 78.8102 174.079C78.0967 174.079 77.5182 174.656 77.5182 175.368C77.5182 176.081 78.0967 176.658 78.8102 176.658Z" fill="white"/>
<path d="M78.8102 21.9211C79.5238 21.9211 80.1022 21.3437 80.1022 20.6316C80.1022 19.9195 79.5238 19.3421 78.8102 19.3421C78.0967 19.3421 77.5182 19.9195 77.5182 20.6316C77.5182 21.3437 78.0967 21.9211 78.8102 21.9211Z" fill="white"/>
<path d="M78.8102 79.9474C79.5238 79.9474 80.1022 79.37 80.1022 78.6579C80.1022 77.9458 79.5238 77.3684 78.8102 77.3684C78.0967 77.3684 77.5182 77.9458 77.5182 78.6579C77.5182 79.37 78.0967 79.9474 78.8102 79.9474Z" fill="white"/>
<path d="M78.8102 137.974C79.5238 137.974 80.1022 137.396 80.1022 136.684C80.1022 135.972 79.5238 135.395 78.8102 135.395C78.0967 135.395 77.5182 135.972 77.5182 136.684C77.5182 137.396 78.0967 137.974 78.8102 137.974Z" fill="white"/>
<path d="M78.8102 196C79.5238 196 80.1022 195.423 80.1022 194.711C80.1022 193.998 79.5238 193.421 78.8102 193.421C78.0967 193.421 77.5182 193.998 77.5182 194.711C77.5182 195.423 78.0967 196 78.8102 196Z" fill="white"/>
<path d="M78.8102 41.2632C79.5238 41.2632 80.1022 40.6858 80.1022 39.9737C80.1022 39.2616 79.5238 38.6842 78.8102 38.6842C78.0967 38.6842 77.5182 39.2616 77.5182 39.9737C77.5182 40.6858 78.0967 41.2632 78.8102 41.2632Z" fill="white"/>
<path d="M78.8102 99.2895C79.5238 99.2895 80.1022 98.7121 80.1022 98C80.1022 97.2879 79.5238 96.7105 78.8102 96.7105C78.0967 96.7105 77.5182 97.2879 77.5182 98C77.5182 98.7121 78.0967 99.2895 78.8102 99.2895Z" fill="white"/>
<path d="M78.8102 157.316C79.5238 157.316 80.1022 156.738 80.1022 156.026C80.1022 155.314 79.5238 154.737 78.8102 154.737C78.0967 154.737 77.5182 155.314 77.5182 156.026C77.5182 156.738 78.0967 157.316 78.8102 157.316Z" fill="white"/>
<path d="M99.4818 1.28947C99.4818 2.00158 98.9033 2.57895 98.1898 2.57895C97.4763 2.57895 96.8978 2.00158 96.8978 1.28947C96.8978 0.577367 97.4763 0 98.1898 0C98.9033 0 99.4818 0.577367 99.4818 1.28947Z" fill="white"/>
<path d="M99.4818 59.3158C99.4818 60.0279 98.9033 60.6053 98.1898 60.6053C97.4763 60.6053 96.8978 60.0279 96.8978 59.3158C96.8978 58.6037 97.4763 58.0263 98.1898 58.0263C98.9033 58.0263 99.4818 58.6037 99.4818 59.3158Z" fill="white"/>
<path d="M99.4818 117.342C99.4818 118.054 98.9033 118.632 98.1898 118.632C97.4763 118.632 96.8978 118.054 96.8978 117.342C96.8978 116.63 97.4763 116.053 98.1898 116.053C98.9033 116.053 99.4818 116.63 99.4818 117.342Z" fill="white"/>
<path d="M99.4818 175.368C99.4818 176.081 98.9033 176.658 98.1898 176.658C97.4763 176.658 96.8978 176.081 96.8978 175.368C96.8978 174.656 97.4763 174.079 98.1898 174.079C98.9033 174.079 99.4818 174.656 99.4818 175.368Z" fill="white"/>
<path d="M99.4818 20.6316C99.4818 21.3437 98.9033 21.9211 98.1898 21.9211C97.4763 21.9211 96.8978 21.3437 96.8978 20.6316C96.8978 19.9195 97.4763 19.3421 98.1898 19.3421C98.9033 19.3421 99.4818 19.9195 99.4818 20.6316Z" fill="white"/>
<path d="M99.4818 78.6579C99.4818 79.37 98.9033 79.9474 98.1898 79.9474C97.4763 79.9474 96.8978 79.37 96.8978 78.6579C96.8978 77.9458 97.4763 77.3684 98.1898 77.3684C98.9033 77.3684 99.4818 77.9458 99.4818 78.6579Z" fill="white"/>
<path d="M99.4818 136.684C99.4818 137.396 98.9033 137.974 98.1898 137.974C97.4763 137.974 96.8978 137.396 96.8978 136.684C96.8978 135.972 97.4763 135.395 98.1898 135.395C98.9033 135.395 99.4818 135.972 99.4818 136.684Z" fill="white"/>
<path d="M99.4818 194.711C99.4818 195.423 98.9033 196 98.1898 196C97.4763 196 96.8978 195.423 96.8978 194.711C96.8978 193.998 97.4763 193.421 98.1898 193.421C98.9033 193.421 99.4818 193.998 99.4818 194.711Z" fill="white"/>
<path d="M99.4818 39.9737C99.4818 40.6858 98.9033 41.2632 98.1898 41.2632C97.4763 41.2632 96.8978 40.6858 96.8978 39.9737C96.8978 39.2616 97.4763 38.6842 98.1898 38.6842C98.9033 38.6842 99.4818 39.2616 99.4818 39.9737Z" fill="white"/>
<path d="M99.4818 98C99.4818 98.7121 98.9033 99.2895 98.1898 99.2895C97.4763 99.2895 96.8978 98.7121 96.8978 98C96.8978 97.2879 97.4763 96.7105 98.1898 96.7105C98.9033 96.7105 99.4818 97.2879 99.4818 98Z" fill="white"/>
<path d="M99.4818 156.026C99.4818 156.738 98.9033 157.316 98.1898 157.316C97.4763 157.316 96.8978 156.738 96.8978 156.026C96.8978 155.314 97.4763 154.737 98.1898 154.737C98.9033 154.737 99.4818 155.314 99.4818 156.026Z" fill="white"/>
<path d="M117.569 2.57895C118.283 2.57895 118.861 2.00158 118.861 1.28947C118.861 0.577367 118.283 0 117.569 0C116.856 0 116.277 0.577367 116.277 1.28947C116.277 2.00158 116.856 2.57895 117.569 2.57895Z" fill="white"/>
<path d="M117.569 60.6053C118.283 60.6053 118.861 60.0279 118.861 59.3158C118.861 58.6037 118.283 58.0263 117.569 58.0263C116.856 58.0263 116.277 58.6037 116.277 59.3158C116.277 60.0279 116.856 60.6053 117.569 60.6053Z" fill="white"/>
<path d="M117.569 118.632C118.283 118.632 118.861 118.054 118.861 117.342C118.861 116.63 118.283 116.053 117.569 116.053C116.856 116.053 116.277 116.63 116.277 117.342C116.277 118.054 116.856 118.632 117.569 118.632Z" fill="white"/>
<path d="M117.569 176.658C118.283 176.658 118.861 176.081 118.861 175.368C118.861 174.656 118.283 174.079 117.569 174.079C116.856 174.079 116.277 174.656 116.277 175.368C116.277 176.081 116.856 176.658 117.569 176.658Z" fill="white"/>
<path d="M117.569 21.9211C118.283 21.9211 118.861 21.3437 118.861 20.6316C118.861 19.9195 118.283 19.3421 117.569 19.3421C116.856 19.3421 116.277 19.9195 116.277 20.6316C116.277 21.3437 116.856 21.9211 117.569 21.9211Z" fill="white"/>
<path d="M117.569 79.9474C118.283 79.9474 118.861 79.37 118.861 78.6579C118.861 77.9458 118.283 77.3684 117.569 77.3684C116.856 77.3684 116.277 77.9458 116.277 78.6579C116.277 79.37 116.856 79.9474 117.569 79.9474Z" fill="white"/>
<path d="M117.569 137.974C118.283 137.974 118.861 137.396 118.861 136.684C118.861 135.972 118.283 135.395 117.569 135.395C116.856 135.395 116.277 135.972 116.277 136.684C116.277 137.396 116.856 137.974 117.569 137.974Z" fill="white"/>
<path d="M117.569 196C118.283 196 118.861 195.423 118.861 194.711C118.861 193.998 118.283 193.421 117.569 193.421C116.856 193.421 116.277 193.998 116.277 194.711C116.277 195.423 116.856 196 117.569 196Z" fill="white"/>
<path d="M117.569 41.2632C118.283 41.2632 118.861 40.6858 118.861 39.9737C118.861 39.2616 118.283 38.6842 117.569 38.6842C116.856 38.6842 116.277 39.2616 116.277 39.9737C116.277 40.6858 116.856 41.2632 117.569 41.2632Z" fill="white"/>
<path d="M117.569 99.2895C118.283 99.2895 118.861 98.7121 118.861 98C118.861 97.2879 118.283 96.7105 117.569 96.7105C116.856 96.7105 116.277 97.2879 116.277 98C116.277 98.7121 116.856 99.2895 117.569 99.2895Z" fill="white"/>
<path d="M117.569 157.316C118.283 157.316 118.861 156.738 118.861 156.026C118.861 155.314 118.283 154.737 117.569 154.737C116.856 154.737 116.277 155.314 116.277 156.026C116.277 156.738 116.856 157.316 117.569 157.316Z" fill="white"/>
<path d="M138.241 1.28947C138.241 2.00158 137.662 2.57895 136.949 2.57895C136.235 2.57895 135.657 2.00158 135.657 1.28947C135.657 0.577367 136.235 0 136.949 0C137.662 0 138.241 0.577367 138.241 1.28947Z" fill="white"/>
<path d="M138.241 59.3158C138.241 60.0279 137.662 60.6053 136.949 60.6053C136.235 60.6053 135.657 60.0279 135.657 59.3158C135.657 58.6037 136.235 58.0263 136.949 58.0263C137.662 58.0263 138.241 58.6037 138.241 59.3158Z" fill="white"/>
<path d="M138.241 117.342C138.241 118.054 137.662 118.632 136.949 118.632C136.235 118.632 135.657 118.054 135.657 117.342C135.657 116.63 136.235 116.053 136.949 116.053C137.662 116.053 138.241 116.63 138.241 117.342Z" fill="white"/>
<path d="M138.241 175.368C138.241 176.081 137.662 176.658 136.949 176.658C136.235 176.658 135.657 176.081 135.657 175.368C135.657 174.656 136.235 174.079 136.949 174.079C137.662 174.079 138.241 174.656 138.241 175.368Z" fill="white"/>
<path d="M138.241 20.6316C138.241 21.3437 137.662 21.9211 136.949 21.9211C136.235 21.9211 135.657 21.3437 135.657 20.6316C135.657 19.9195 136.235 19.3421 136.949 19.3421C137.662 19.3421 138.241 19.9195 138.241 20.6316Z" fill="white"/>
<path d="M138.241 78.6579C138.241 79.37 137.662 79.9474 136.949 79.9474C136.235 79.9474 135.657 79.37 135.657 78.6579C135.657 77.9458 136.235 77.3684 136.949 77.3684C137.662 77.3684 138.241 77.9458 138.241 78.6579Z" fill="white"/>
<path d="M138.241 136.684C138.241 137.396 137.662 137.974 136.949 137.974C136.235 137.974 135.657 137.396 135.657 136.684C135.657 135.972 136.235 135.395 136.949 135.395C137.662 135.395 138.241 135.972 138.241 136.684Z" fill="white"/>
<path d="M138.241 194.711C138.241 195.423 137.662 196 136.949 196C136.235 196 135.657 195.423 135.657 194.711C135.657 193.998 136.235 193.421 136.949 193.421C137.662 193.421 138.241 193.998 138.241 194.711Z" fill="white"/>
<path d="M138.241 39.9737C138.241 40.6858 137.662 41.2632 136.949 41.2632C136.235 41.2632 135.657 40.6858 135.657 39.9737C135.657 39.2616 136.235 38.6842 136.949 38.6842C137.662 38.6842 138.241 39.2616 138.241 39.9737Z" fill="white"/>
<path d="M138.241 98C138.241 98.7121 137.662 99.2895 136.949 99.2895C136.235 99.2895 135.657 98.7121 135.657 98C135.657 97.2879 136.235 96.7105 136.949 96.7105C137.662 96.7105 138.241 97.2879 138.241 98Z" fill="white"/>
<path d="M138.241 156.026C138.241 156.738 137.662 157.316 136.949 157.316C136.235 157.316 135.657 156.738 135.657 156.026C135.657 155.314 136.235 154.737 136.949 154.737C137.662 154.737 138.241 155.314 138.241 156.026Z" fill="white"/>
<path d="M156.328 2.57895C157.042 2.57895 157.62 2.00158 157.62 1.28947C157.62 0.577367 157.042 0 156.328 0C155.615 0 155.036 0.577367 155.036 1.28947C155.036 2.00158 155.615 2.57895 156.328 2.57895Z" fill="white"/>
<path d="M156.328 60.6053C157.042 60.6053 157.62 60.0279 157.62 59.3158C157.62 58.6037 157.042 58.0263 156.328 58.0263C155.615 58.0263 155.036 58.6037 155.036 59.3158C155.036 60.0279 155.615 60.6053 156.328 60.6053Z" fill="white"/>
<path d="M156.328 118.632C157.042 118.632 157.62 118.054 157.62 117.342C157.62 116.63 157.042 116.053 156.328 116.053C155.615 116.053 155.036 116.63 155.036 117.342C155.036 118.054 155.615 118.632 156.328 118.632Z" fill="white"/>
<path d="M156.328 176.658C157.042 176.658 157.62 176.081 157.62 175.368C157.62 174.656 157.042 174.079 156.328 174.079C155.615 174.079 155.036 174.656 155.036 175.368C155.036 176.081 155.615 176.658 156.328 176.658Z" fill="white"/>
<path d="M156.328 21.9211C157.042 21.9211 157.62 21.3437 157.62 20.6316C157.62 19.9195 157.042 19.3421 156.328 19.3421C155.615 19.3421 155.036 19.9195 155.036 20.6316C155.036 21.3437 155.615 21.9211 156.328 21.9211Z" fill="white"/>
<path d="M156.328 79.9474C157.042 79.9474 157.62 79.37 157.62 78.6579C157.62 77.9458 157.042 77.3684 156.328 77.3684C155.615 77.3684 155.036 77.9458 155.036 78.6579C155.036 79.37 155.615 79.9474 156.328 79.9474Z" fill="white"/>
<path d="M156.328 137.974C157.042 137.974 157.62 137.396 157.62 136.684C157.62 135.972 157.042 135.395 156.328 135.395C155.615 135.395 155.036 135.972 155.036 136.684C155.036 137.396 155.615 137.974 156.328 137.974Z" fill="white"/>
<path d="M156.328 196C157.042 196 157.62 195.423 157.62 194.711C157.62 193.998 157.042 193.421 156.328 193.421C155.615 193.421 155.036 193.998 155.036 194.711C155.036 195.423 155.615 196 156.328 196Z" fill="white"/>
<path d="M156.328 41.2632C157.042 41.2632 157.62 40.6858 157.62 39.9737C157.62 39.2616 157.042 38.6842 156.328 38.6842C155.615 38.6842 155.036 39.2616 155.036 39.9737C155.036 40.6858 155.615 41.2632 156.328 41.2632Z" fill="white"/>
<path d="M156.328 99.2895C157.042 99.2895 157.62 98.7121 157.62 98C157.62 97.2879 157.042 96.7105 156.328 96.7105C155.615 96.7105 155.036 97.2879 155.036 98C155.036 98.7121 155.615 99.2895 156.328 99.2895Z" fill="white"/>
<path d="M156.328 157.316C157.042 157.316 157.62 156.738 157.62 156.026C157.62 155.314 157.042 154.737 156.328 154.737C155.615 154.737 155.036 155.314 155.036 156.026C155.036 156.738 155.615 157.316 156.328 157.316Z" fill="white"/>
<path d="M177 1.28947C177 2.00158 176.422 2.57895 175.708 2.57895C174.995 2.57895 174.416 2.00158 174.416 1.28947C174.416 0.577367 174.995 0 175.708 0C176.422 0 177 0.577367 177 1.28947Z" fill="white"/>
<path d="M177 59.3158C177 60.0279 176.422 60.6053 175.708 60.6053C174.995 60.6053 174.416 60.0279 174.416 59.3158C174.416 58.6037 174.995 58.0263 175.708 58.0263C176.422 58.0263 177 58.6037 177 59.3158Z" fill="white"/>
<path d="M177 117.342C177 118.054 176.422 118.632 175.708 118.632C174.995 118.632 174.416 118.054 174.416 117.342C174.416 116.63 174.995 116.053 175.708 116.053C176.422 116.053 177 116.63 177 117.342Z" fill="white"/>
<path d="M177 175.368C177 176.081 176.422 176.658 175.708 176.658C174.995 176.658 174.416 176.081 174.416 175.368C174.416 174.656 174.995 174.079 175.708 174.079C176.422 174.079 177 174.656 177 175.368Z" fill="white"/>
<path d="M177 20.6316C177 21.3437 176.422 21.9211 175.708 21.9211C174.995 21.9211 174.416 21.3437 174.416 20.6316C174.416 19.9195 174.995 19.3421 175.708 19.3421C176.422 19.3421 177 19.9195 177 20.6316Z" fill="white"/>
<path d="M177 78.6579C177 79.37 176.422 79.9474 175.708 79.9474C174.995 79.9474 174.416 79.37 174.416 78.6579C174.416 77.9458 174.995 77.3684 175.708 77.3684C176.422 77.3684 177 77.9458 177 78.6579Z" fill="white"/>
<path d="M177 136.684C177 137.396 176.422 137.974 175.708 137.974C174.995 137.974 174.416 137.396 174.416 136.684C174.416 135.972 174.995 135.395 175.708 135.395C176.422 135.395 177 135.972 177 136.684Z" fill="white"/>
<path d="M177 194.711C177 195.423 176.422 196 175.708 196C174.995 196 174.416 195.423 174.416 194.711C174.416 193.998 174.995 193.421 175.708 193.421C176.422 193.421 177 193.998 177 194.711Z" fill="white"/>
<path d="M177 39.9737C177 40.6858 176.422 41.2632 175.708 41.2632C174.995 41.2632 174.416 40.6858 174.416 39.9737C174.416 39.2616 174.995 38.6842 175.708 38.6842C176.422 38.6842 177 39.2616 177 39.9737Z" fill="white"/>
<path d="M177 98C177 98.7121 176.422 99.2895 175.708 99.2895C174.995 99.2895 174.416 98.7121 174.416 98C174.416 97.2879 174.995 96.7105 175.708 96.7105C176.422 96.7105 177 97.2879 177 98Z" fill="white"/>
<path d="M177 156.026C177 156.738 176.422 157.316 175.708 157.316C174.995 157.316 174.416 156.738 174.416 156.026C174.416 155.314 174.995 154.737 175.708 154.737C176.422 154.737 177 155.314 177 156.026Z" fill="white"/>
</svg>
